<svg width="20" height="20" viewBox="0 0 20 20" fill="none" xmlns="http://www.w3.org/2000/svg">
<path d="M7.5 15C7.5 15.663 7.76339 16.2989 8.23223 16.7678C8.70107 17.2366 9.33696 17.5 10 17.5C10.663 17.5 11.2989 17.2366 11.7678 16.7678C12.2366 16.2989 12.5 15.663 12.5 15" stroke="currentColor" stroke-width="1.5" stroke-linecap="round" stroke-linejoin="round"/>
<path d="M14.375 1.875C15.5819 2.64509 16.5608 3.72406 17.2102 5" stroke="currentColor" stroke-width="1.5" stroke-linecap="round" stroke-linejoin="round"/>
<path d="M2.78971 5C3.43906 3.72406 4.41796 2.64509 5.62487 1.875" stroke="currentColor" stroke-width="1.5" stroke-linecap="round" stroke-linejoin="round"/>
<path d="M4.3749 8.75C4.3749 7.25816 4.96753 5.82742 6.02243 4.77252C7.07732 3.71763 8.50806 3.125 9.9999 3.125C11.4917 3.125 12.9225 3.71763 13.9774 4.77252C15.0323 5.82742 15.6249 7.25816 15.6249 8.75C15.6249 11.5484 16.2733 13.1719 16.789 14.0625C16.8437 14.1574 16.8726 14.2649 16.8727 14.3744C16.8728 14.484 16.8441 14.5916 16.7895 14.6865C16.7349 14.7815 16.6563 14.8604 16.5616 14.9154C16.4669 14.9705 16.3594 14.9996 16.2499 15H3.7499C3.64051 14.9993 3.53321 14.97 3.43872 14.9149C3.34423 14.8597 3.26587 14.7808 3.21146 14.6859C3.15705 14.591 3.1285 14.4835 3.12866 14.3741C3.12883 14.2647 3.1577 14.1572 3.2124 14.0625C3.72725 13.1719 4.3749 11.5477 4.3749 8.75Z" stroke="currentColor" stroke-width="1.5" stroke-linecap="round" stroke-linejoin="round"/>
</svg>
