<svg width="20" height="20" viewBox="0 0 20 20" fill="none" xmlns="http://www.w3.org/2000/svg">
<path d="M10 13.125C11.7259 13.125 13.125 11.7259 13.125 10C13.125 8.27411 11.7259 6.875 10 6.875C8.27411 6.875 6.875 8.27411 6.875 10C6.875 11.7259 8.27411 13.125 10 13.125Z" stroke="currentColor" stroke-width="1.5" stroke-linecap="round" stroke-linejoin="round"/>
<path d="M10.16 16.1023C10.0553 16.1023 9.94987 16.1023 9.84752 16.1023L7.34362 17.5C6.36887 17.1721 5.46477 16.6632 4.67877 16L4.6694 13.1875C4.61393 13.1 4.56159 13.0117 4.51315 12.9211L2.02331 11.5031C1.82719 10.5112 1.82719 9.4904 2.02331 8.49844L4.51081 7.08438C4.56159 6.99453 4.61393 6.90547 4.66706 6.81797L4.67956 4.00547C5.46484 3.34035 6.36871 2.82957 7.34362 2.5L9.84362 3.89766C9.94831 3.89766 10.0538 3.89766 10.1561 3.89766L12.6561 2.5C13.6309 2.82788 14.535 3.33679 15.321 4L15.3303 6.8125C15.3858 6.9 15.4381 6.98828 15.4866 7.07891L17.9749 8.49609C18.171 9.48806 18.171 10.5088 17.9749 11.5008L15.4874 12.9148C15.4366 13.0047 15.3842 13.0938 15.3311 13.1813L15.3186 15.9938C14.5339 16.659 13.6305 17.17 12.6561 17.5L10.16 16.1023Z" stroke="currentColor" stroke-width="1.5" stroke-linecap="round" stroke-linejoin="round"/>
</svg>
