<svg width="20" height="20" viewBox="0 0 20 20" fill="none" xmlns="http://www.w3.org/2000/svg">
<path d="M8.125 16.8751V11.8751H11.875V16.8751H16.875V9.37508C16.8751 9.29298 16.859 9.21168 16.8276 9.1358C16.7962 9.05993 16.7502 8.99098 16.6922 8.9329L10.4422 2.6829C10.3841 2.62479 10.3152 2.57869 10.2393 2.54723C10.1635 2.51578 10.0821 2.49959 10 2.49959C9.91787 2.49959 9.83654 2.51578 9.76066 2.54723C9.68479 2.57869 9.61586 2.62479 9.55781 2.6829L3.30781 8.9329C3.24979 8.99098 3.20378 9.05993 3.17241 9.1358C3.14105 9.21168 3.12494 9.29298 3.125 9.37508V16.8751H8.125Z" stroke="currentColor" stroke-width="1.5" stroke-linecap="round" stroke-linejoin="round"/>
</svg>
