<svg preserveAspectRatio="none" width="100%" height="100%" overflow="visible" style="display: block;" viewBox="0 0 151 104" fill="none" xmlns="http://www.w3.org/2000/svg">
<path id="gold-logo" d="M43.2725 42.251H43.2734V94.2432L21.6357 104C16.6343 99.3831 8.71498 95.6447 0 94.252L14.9863 87.4746C20.1928 89.0904 24.3302 91.3764 28.8496 95.4365V76.833L19.5234 81.0332C11.8735 81.0331 7.21099 76.1209 7.21094 64.626V45.5039L28.8496 35.751L43.2725 42.251ZM107.643 71.5508C107.643 81.6133 111.175 87.672 118.43 89.3203L102.874 97.2227C96.6217 94.4445 93.6778 89.3973 93.6777 77.0576V19.502L107.645 13.1689C107.645 13.3362 107.643 67.4978 107.643 71.5508ZM151 71.501L127.297 82.2119C119.429 82.2119 114.985 77.7661 114.985 65.8057V42.251L136.576 32.5V6.50195L151 0V71.501ZM86.5459 35.751L86.5469 35.75V68.252L62.6709 79.0146C55.0211 79.0145 50.3584 74.1014 50.3584 62.6064V39.0537L72.125 29.251L86.5459 35.751ZM129.408 62.917C129.408 69.2487 131.305 72.8213 136.576 74.3115V42.7803L129.408 39.5498V62.917ZM21.6348 62.4697C21.6348 69.0966 23.7487 72.4334 28.8496 73.7744V46.0312L21.6348 42.7812V62.4697ZM64.7822 59.5078C64.7822 66.0744 67.0284 69.5089 72.125 70.9297V39.6338L64.7822 36.3291V59.5078Z" fill="var(--fill-0, white)"/>
</svg>
